<svg width="32" height="32" viewBox="0 0 32 32" fill="none" xmlns="http://www.w3.org/2000/svg">
  <!-- Background circle -->
  <circle cx="16" cy="16" r="16" fill="url(#yellowGradient)"/>
  
  <!-- Figma Icon (Simplified) -->
  <g transform="translate(4, 6)">
    <!-- F Shape -->
    <rect x="0" y="0" width="8" height="18" rx="1" fill="#fbbf24" opacity="0.9"/>
    <rect x="2" y="2" width="4" height="1" rx="0.5" fill="#f59e0b"/>
    <rect x="2" y="5" width="4" height="1" rx="0.5" fill="#f59e0b"/>
    <rect x="2" y="8" width="2.5" height="1" rx="0.5" fill="#f59e0b"/>
    
    <!-- Figma Circles -->
    <circle cx="4" cy="12" r="1.5" fill="#f59e0b"/>
    <circle cx="4" cy="15" r="1.5" fill="#f97316"/>
  </g>
  
  <!-- Arrow -->
  <path d="M13 16 L17 16" stroke="#fbbf24" strokeWidth="1.5" strokeLinecap="round"/>
  <path d="M15.5 14.5 L17.5 16 L15.5 17.5" stroke="#fbbf24" strokeWidth="1.5" strokeLinecap="round" strokeLinejoin="round"/>
  
  <!-- Code Brackets -->
  <g transform="translate(19, 8)">
    <path d="M0 4 L-1.5 5.5 L0 7" stroke="#f59e0b" strokeWidth="1" strokeLinecap="round" strokeLinejoin="round"/>
    <path d="M8 4 L9.5 5.5 L8 7" stroke="#f59e0b" strokeWidth="1" strokeLinecap="round" strokeLinejoin="round"/>
    <rect x="1.5" y="5" width="5" height="1" rx="0.5" fill="#fbbf24"/>
    <rect x="2" y="7.5" width="4" height="0.8" rx="0.4" fill="#f59e0b" opacity="0.7"/>
    <rect x="2" y="9.5" width="3" height="0.8" rx="0.4" fill="#f97316" opacity="0.7"/>
  </g>
  
  <!-- AI Sparkle -->
  <g transform="translate(22, 5)">
    <path d="M0 1.5 L0.5 0 L1 1.5 L2.5 2 L1 2.5 L0.5 4 L0 2.5 L-1.5 2 Z" fill="#fbbf24" opacity="0.8"/>
  </g>
  
  <defs>
    <linearGradient id="yellowGradient" x1="0" y1="0" x2="32" y2="32">
      <stop offset="0%" stopColor="#fef3c7"/>
      <stop offset="100%" stopColor="#fbbf24"/>
    </linearGradient>
  </defs>
</svg>